<svg height="16px" viewBox="-32 0 512 512.00533" width="16px" xmlns="http://www.w3.org/2000/svg"><path d="m437.339844 138.671875-213.332032 128-213.335937-128 213.335937-128zm0 0" fill="#eb675e"/><path d="m224.007812 266.671875v234.667969l-213.335937-128v-234.667969zm0 0" fill="#3c96d1"/><path d="m437.339844 138.671875v234.667969l-213.332032 128v-234.667969zm0 0" fill="#ffd54f"/><path d="m224.007812 512.003906c-1.898437 0-3.796874-.511718-5.484374-1.511718l-213.332032-128c-3.222656-1.941407-5.1835935-5.398438-5.1835935-9.152344v-234.667969c0-3.753906 1.9609375-7.210937 5.1835935-9.152344l213.332032-128c3.371093-2.027343 7.59375-2.027343 10.988281 0l213.332031 128c3.199219 1.941407 5.164062 5.398438 5.164062 9.152344v234.753906c0 3.753907-1.964843 7.207031-5.183593 9.148438l-213.335938 127.917969c-1.683593 1-3.582031 1.511718-5.480469 1.511718zm-202.667968-144.703125 202.667968 121.601563 202.664063-121.515625v-222.675781l-202.664063-121.601563-202.667968 121.601563zm0 0"/><path d="m224.007812 277.339844c-1.855468 0-3.753906-.492188-5.484374-1.515625l-213.332032-128c-5.054687-3.03125-6.699218-9.601563-3.667968-14.636719 3.027343-5.03125 9.578124-6.695312 14.632812-3.667969l213.332031 128c5.058594 3.03125 6.679688 9.578125 3.648438 14.636719-1.984375 3.347656-5.523438 5.183594-9.128907 5.183594zm0 0"/><path d="m224.007812 277.339844c-3.628906 0-7.148437-1.835938-9.152343-5.183594-3.03125-5.058594-1.386719-11.605469 3.648437-14.636719l213.332032-128c5.054687-3.027343 11.605468-1.386719 14.636718 3.648438 3.027344 5.035156 1.386719 11.605469-3.648437 14.632812l-213.335938 128c-1.707031 1.046875-3.605469 1.539063-5.480469 1.539063zm0 0"/><path d="m224.007812 512.003906c-5.890624 0-10.667968-4.777344-10.667968-10.664062v-234.667969c0-5.886719 4.777344-10.667969 10.667968-10.667969 5.886719 0 10.664063 4.78125 10.664063 10.667969v234.667969c0 5.886718-4.777344 10.664062-10.664063 10.664062zm0 0"/></svg>