<svg xmlns="http://www.w3.org/2000/svg" width="16" height="16" viewBox="50 50 400 400"><linearGradient id="f" x1="71.429" y1="70" x2="428.572" y2="427.144"><stop offset="0" stop-color="#3366cc"/><stop offset="1" stop-color="#1c435c"/></linearGradient><path fill="url(#f)" d="M57.143 84.286h385.714v328.572H57.143z"/><linearGradient id="h" x1="208.746" y1="260.29" x2="338.69" y2="390.234"><stop offset="0" stop-color="#f2f2f2"/><stop offset="1" stop-color="#f2f2f2"/></linearGradient><path fill="url(#h)" d="M228.992 376.45l40.664-14.412 33.134-57.654 39.158 25.223 22.593-5.404 48.195-39.637 30.122 1.5v-26.722L399.18 234.12l-42.17 32.43-52.713-61.257-72.292 122.514-54.22-27.026-86.568 77.038 92.592-17.583z"/><linearGradient id="j" x1="178.812" y1="278.614" x2="384.705" y2="484.507"><stop offset="0" stop-color="#f2f2f2"/><stop offset="1" stop-color="#f2f2f2"/></linearGradient><path fill="url(#j)" d="M442.857 410.285v-128.22l-30.122-1.5-48.194 39.638-22.592 5.404-39.158-25.223-33.134 57.654-40.664 14.413-45.183-16.215-92.593 17.583-36.93 32.864z"/><path fill="#a3a5b3" d="M435.714 92.857v314.286H64.286V92.857h371.428M450 78.57H50v342.86h400V78.57z"/></svg>