<svg version="1.1" id="Ebene_1" xmlns="http://www.w3.org/2000/svg" x="0" y="0" viewBox="0 0 161.1 104" xml:space="preserve">
  <defs/>
  <style>
    .st0{fill:#92c142}.st1{fill:#3c3c3b}.st2{fill:#b2b2b2}.st5{fill:#dadada}
  </style>
  <path class="st0" d="M13.4 77.2H8.1v13.6H6.6V77.2H1.3v-1.3h12.1v1.3zM24.5 90.8h-1.4v-6.1c0-1.2-.2-2.2-.6-2.8-.5-.6-1.1-.9-1.9-.9-.4 0-.8.1-1.2.2s-.8.4-1.1.7c-.3.3-.7.6-.9 1-.3.4-.5.8-.6 1.2v6.7h-1.4V75.5h1.4v6.9c.4-.8 1-1.5 1.8-1.9.8-.5 1.6-.7 2.5-.7.6 0 1.2.1 1.6.3a3.46 3.46 0 011.7 2.5c.1.6.2 1.2.2 1.9v6.3zM32.3 91a5.45 5.45 0 01-3.9-1.7c-.5-.5-.9-1.1-1.1-1.8s-.4-1.4-.4-2.2c0-.8.1-1.5.4-2.2.3-.7.6-1.3 1.1-1.8a5.45 5.45 0 013.9-1.7 5.45 5.45 0 015 3.5c.3.7.4 1.4.4 2.1v.5h-9.4c0 .6.2 1.1.4 1.6s.5.9.9 1.3.8.6 1.2.8 1 .3 1.5.3c.3 0 .7 0 1-.1.3-.1.7-.2 1-.4.3-.2.6-.4.8-.6.2-.2.4-.5.5-.8l1.2.3c-.2.4-.4.8-.7 1.1-.3.3-.7.6-1.1.9-.4.2-.9.4-1.3.6-.4.2-.9.3-1.4.3zm4-6.3c0-.6-.2-1.1-.4-1.6s-.5-.9-.9-1.2c-.4-.3-.8-.6-1.2-.8a4.01 4.01 0 00-3 0c-.5.2-.9.5-1.2.8-.4.3-.6.8-.9 1.3-.2.5-.3 1-.4 1.6h8zM56.1 90.8h-1.4v-6.1c0-1.3-.2-2.2-.6-2.8-.4-.6-1-.9-1.8-.9-.4 0-.8.1-1.2.2-.4.2-.7.4-1 .6-.3.3-.6.6-.8 1-.2.4-.4.8-.5 1.3v6.7h-1.4v-6.1c0-1.3-.2-2.2-.6-2.8-.4-.6-1-.9-1.8-.9s-1.6.3-2.2.9c-.6.6-1.1 1.3-1.4 2.3v6.7H40v-11h1.3v2.5c.4-.8 1-1.5 1.8-2 .7-.5 1.5-.7 2.4-.7a3.11 3.11 0 013.2 2.8c1-1.9 2.4-2.8 4.2-2.8.6 0 1.1.1 1.6.3s.8.5 1 1c.3.4.4.9.6 1.5.1.6.2 1.2.2 1.9v6.4zM63.8 91a5.45 5.45 0 01-3.9-1.7c-.5-.5-.9-1.1-1.1-1.8s-.4-1.4-.4-2.2c0-.8.1-1.5.4-2.2.3-.7.6-1.3 1.1-1.8a5.45 5.45 0 013.9-1.7 5.45 5.45 0 015 3.5c.3.7.4 1.4.4 2.1v.5h-9.4c0 .6.2 1.1.4 1.6s.5.9.9 1.3.8.6 1.2.8 1 .3 1.5.3c.3 0 .7 0 1-.1.3-.1.7-.2 1-.4.3-.2.6-.4.8-.6.2-.2.4-.5.5-.8l1.2.3c-.2.4-.4.8-.7 1.1-.3.3-.7.6-1.1.9-.4.2-.9.4-1.3.6-.3.2-.8.3-1.4.3zm4.1-6.3c0-.6-.2-1.1-.4-1.6s-.5-.9-.9-1.2c-.4-.3-.8-.6-1.2-.8a4.01 4.01 0 00-3 0c-.5.2-.9.5-1.2.8-.4.3-.6.8-.9 1.3-.2.5-.3 1-.4 1.6h8z"/>
  <path class="st1" d="M84.8 90.8v-9.9L81 88.3h-1.6L75.6 81v9.9h-2.9v-15h3.1l4.4 8.5 4.4-8.5h3.1v14.9h-2.9zM93.4 91c-.5 0-1-.1-1.5-.3-.5-.2-.9-.4-1.2-.7s-.6-.7-.8-1.1c-.2-.4-.3-.9-.3-1.4 0-.5.1-1 .3-1.4.2-.4.6-.8 1-1.1.4-.3.9-.5 1.5-.7s1.2-.3 1.9-.3c.5 0 1 0 1.4.1.5.1.9.2 1.2.4v-.6c0-.7-.2-1.3-.6-1.7-.4-.4-1-.6-1.8-.6-.6 0-1.2.1-1.7.3a7 7 0 00-1.7.9l-.8-1.8a8.3 8.3 0 014.6-1.4c1.6 0 2.8.4 3.7 1.2.9.8 1.3 1.9 1.3 3.4v3.4c0 .3.1.5.2.6.1.1.3.2.5.2v2.4c-.5.1-.9.1-1.2.1-.5 0-.9-.1-1.2-.4-.3-.2-.5-.6-.5-.9l-.2-.6c-.5.6-1.1 1.1-1.8 1.5-.7.3-1.5.5-2.3.5zm.8-2.1c.5 0 .9-.1 1.4-.3.4-.2.8-.4 1-.7.3-.2.5-.5.5-.8V86c-.3-.1-.7-.2-1.1-.3-.4-.1-.8-.1-1.1-.1-.7 0-1.3.2-1.8.5s-.7.7-.7 1.2.2.9.5 1.2c.3.3.8.4 1.3.4zM112.7 90.8h-2.8v-6.2c0-.9-.2-1.5-.5-1.9-.3-.4-.7-.6-1.3-.6-.3 0-.6.1-.9.2-.3.1-.6.3-.8.5-.3.2-.5.4-.7.7-.2.3-.4.6-.5.9v6.4h-2.8v-11h2.5v2c.4-.7 1-1.2 1.8-1.6.8-.4 1.6-.6 2.6-.6.7 0 1.2.1 1.7.4.4.3.8.6 1 1 .2.4.4.9.5 1.4s.1 1 .1 1.6v6.8zM118.1 91c-.5 0-1-.1-1.5-.3-.5-.2-.9-.4-1.2-.7s-.6-.7-.8-1.1c-.2-.4-.3-.9-.3-1.4 0-.5.1-1 .3-1.4.2-.4.6-.8 1-1.1.4-.3.9-.5 1.5-.7s1.2-.3 1.9-.3c.5 0 1 0 1.4.1.5.1.9.2 1.2.4v-.6c0-.7-.2-1.3-.6-1.7-.4-.4-1-.6-1.8-.6-.6 0-1.2.1-1.7.3a7 7 0 00-1.7.9L115 81a8.3 8.3 0 014.6-1.4c1.6 0 2.8.4 3.7 1.2.9.8 1.3 1.9 1.3 3.4v3.4c0 .3.1.5.2.6.1.1.3.2.5.2v2.4c-.5.1-.9.1-1.2.1-.5 0-.9-.1-1.2-.4-.3-.2-.5-.6-.5-.9l-.1-.6c-.5.6-1.1 1.1-1.8 1.5-.8.3-1.6.5-2.4.5zm.8-2.1c.5 0 .9-.1 1.4-.3.4-.2.8-.4 1-.7.3-.2.5-.5.5-.8V86c-.3-.1-.7-.2-1.1-.3-.4-.1-.8-.1-1.1-.1-.7 0-1.3.2-1.8.5s-.7.7-.7 1.2.2.9.5 1.2c.3.3.8.4 1.3.4zM131.5 90.8a4.48 4.48 0 01-3.6-1.6c-.4-.5-.8-1.1-1-1.8s-.4-1.4-.4-2.1c0-.8.1-1.5.4-2.2.3-.7.6-1.3 1-1.8s1-.9 1.6-1.2 1.3-.4 2.1-.4c.9 0 1.6.2 2.2.6s1.2.9 1.6 1.5v-1.9h2.5v10.5c0 .8-.2 1.5-.5 2.2-.3.6-.7 1.2-1.3 1.6s-1.2.8-1.9 1c-.7.2-1.6.4-2.4.4-1.2 0-2.2-.2-3-.6-.8-.4-1.5-1-2.1-1.7l1.5-1.5c.4.5.9.9 1.6 1.2a4.48 4.48 0 003.2.2c.4-.1.8-.3 1.1-.6.3-.3.5-.6.7-1 .2-.4.3-.9.3-1.4v-1.4c-.4.6-.9 1.1-1.5 1.5-.7.4-1.4.5-2.1.5zm.9-2.2c.3 0 .6 0 .9-.1.3-.1.5-.2.8-.4l.6-.6c.2-.2.3-.5.4-.7v-2.6c-.3-.6-.6-1.2-1.2-1.6a2.66 2.66 0 00-2.9-.3c-.3.2-.6.4-.9.8-.3.3-.4.7-.6 1.1-.1.4-.2.8-.2 1.3 0 .4.1.9.2 1.3.2.4.4.7.6 1 .3.3.6.5 1 .7.5 0 .9.1 1.3.1zM145.6 91a6.04 6.04 0 01-4.2-1.7 5.38 5.38 0 01-1.6-4c0-.8.1-1.5.4-2.2s.6-1.3 1.2-1.8a6.04 6.04 0 018.4 0c.5.5.9 1.1 1.1 1.8.3.7.4 1.4.4 2.1v.5c0 .2 0 .3-.1.4h-8.5c0 .4.1.8.3 1.2l.6.9c.3.2.6.4.9.5s.7.2 1 .2c.6 0 1.1-.1 1.6-.4.5-.3.8-.6 1-1.1l2.4.7c-.4.8-1.1 1.5-1.9 2.1-.8.5-1.8.8-3 .8zm2.8-6.6c-.1-.8-.4-1.5-.9-2s-1.2-.7-2-.7c-.4 0-.7.1-1.1.2-.3.1-.6.3-.9.6s-.5.5-.6.9-.3.7-.3 1.1h5.8zM159.6 82.2c-.9 0-1.6.2-2.3.5s-1.2.8-1.4 1.4v6.6H153v-11h2.6V82c.2-.4.4-.7.7-1 .3-.3.6-.6.9-.8.3-.2.6-.4.9-.5s.6-.2.9-.2h.5v2.7z"/>
  <g>
    <path class="st2" d="M73.5 102.9v-5.1h-.8v-.6h.8V97c0-.7.1-1.2.4-1.6.3-.4.7-.6 1.2-.6.2 0 .4 0 .6.1.2.1.4.2.5.3l-.2.5c-.1-.1-.2-.1-.4-.2-.1 0-.3-.1-.4-.1-.3 0-.6.1-.8.4-.2.3-.3.7-.3 1.2v.2h1.6v.6h-1.6v5.1h-.6zM78.9 103c-.4 0-.8-.1-1.1-.2l-.9-.6c-.3-.2-.4-.6-.6-.9s-.2-.7-.2-1.1c0-.4.1-.8.2-1.1s.3-.7.6-.9c.2-.3.5-.5.9-.6.3-.2.7-.2 1.1-.2.4 0 .8.1 1.1.2l.9.6.6.9c.2.3.2.7.2 1.1 0 .4-.1.8-.2 1.1s-.3.7-.6.9c-.2.3-.5.5-.9.6-.3.1-.7.2-1.1.2zm-2.1-2.9c0 .3.1.6.2.9.1.3.3.5.4.7.2.2.4.4.6.5.2.1.5.2.8.2s.5-.1.8-.2c.2-.1.5-.3.7-.5s.3-.4.4-.7c.1-.3.2-.6.2-.9 0-.3-.1-.6-.2-.9-.1-.3-.3-.5-.4-.7s-.4-.4-.7-.5c-.2-.1-.5-.2-.8-.2s-.5.1-.8.2-.5.3-.6.5c-.2.2-.3.5-.4.7-.1.3-.2.6-.2.9zM85.7 97.9c-.5 0-.9.2-1.3.4-.4.3-.6.6-.8 1.1v3.5h-.7v-5.6h.7v1.4c.2-.4.5-.8.8-1 .4-.2.7-.4 1.1-.4h.1v.6zM88.9 99c0-.5.1-.9.2-1.4.2-.5.4-.9.7-1.2.3-.4.7-.7 1.1-.9.5-.2 1-.3 1.5-.3a3.18 3.18 0 012.9 1.7l-.6.4c-.1-.3-.3-.5-.4-.6-.2-.2-.4-.3-.6-.4-.2-.1-.4-.2-.6-.2-.2 0-.4-.1-.6-.1-.5 0-.9.1-1.2.3s-.7.4-.9.7c-.2.3-.4.6-.5 1-.1.4-.2.8-.2 1.2 0 .4.1.8.2 1.2s.4.7.6 1c.3.3.6.5.9.7.3.2.7.3 1.1.3.2 0 .4 0 .7-.1.2-.1.4-.1.7-.3s.4-.3.6-.4.3-.4.5-.6l.6.3c-.1.3-.3.5-.5.8s-.5.4-.7.6c-.3.2-.6.3-.9.3-.3.1-.6.1-.9.1-.5 0-1-.1-1.4-.3-.4-.2-.8-.5-1.1-.9-.3-.4-.6-.8-.7-1.3-.4-.6-.5-1.1-.5-1.6zM99.1 103c-.4 0-.8-.1-1.1-.2l-.9-.6c-.3-.2-.4-.6-.6-.9s-.2-.7-.2-1.1c0-.4.1-.8.2-1.1s.3-.7.6-.9c.2-.3.5-.5.9-.6.3-.2.7-.2 1.1-.2.4 0 .8.1 1.1.2l.9.6.6.9c.2.3.2.7.2 1.1 0 .4-.1.8-.2 1.1s-.3.7-.6.9c-.2.3-.5.5-.9.6-.4.1-.7.2-1.1.2zm-2.1-2.9c0 .3.1.6.2.9.1.3.3.5.4.7.2.2.4.4.6.5.2.1.5.2.8.2s.5-.1.8-.2c.2-.1.5-.3.7-.5s.3-.4.4-.7c.1-.3.2-.6.2-.9 0-.3-.1-.6-.2-.9-.1-.3-.3-.5-.4-.7s-.4-.4-.7-.5c-.2-.1-.5-.2-.8-.2s-.5.1-.8.2-.5.3-.6.5c-.2.2-.3.5-.4.7-.1.3-.2.6-.2.9zM107.8 102.9h-.7v-3.1c0-.7-.1-1.2-.3-1.5-.2-.3-.5-.5-.9-.5-.2 0-.4 0-.6.1l-.6.3c-.2.1-.3.3-.5.5l-.3.6v3.5h-.7v-5.6h.7v1.3c.2-.4.6-.7 1-1 .4-.3.9-.4 1.4-.4.3 0 .6.1.8.2.2.1.4.3.5.5.1.2.2.5.3.8.1.3.1.6.1 1v3.3zM112 102.6s-.1.1-.2.1-.2.1-.3.1c-.1 0-.2.1-.4.1h-.4c-.2 0-.3 0-.5-.1-.1 0-.3-.1-.4-.2l-.3-.3c-.1-.1-.1-.3-.1-.5v-4h-.8v-.6h.8v-1.9h.7v1.9h1.3v.6h-1.3v3.8c0 .2.1.4.2.5.1.1.3.1.5.1s.4 0 .6-.1c.2-.1.3-.1.3-.1l.3.6zM114.4 103c-.3 0-.5 0-.7-.1-.2-.1-.4-.2-.6-.4s-.3-.3-.4-.6-.1-.4-.1-.7a1.45 1.45 0 01.7-1.2c.2-.2.5-.3.7-.4.3-.1.6-.1 1-.1.3 0 .6 0 .9.1.3.1.6.1.8.2v-.5c0-.5-.1-.9-.4-1.2-.3-.3-.7-.4-1.2-.4-.3 0-.6.1-.9.2-.3.1-.6.3-.9.5l-.3-.5c.7-.5 1.4-.7 2.1-.7.7 0 1.3.2 1.7.6.4.4.6.9.6 1.6v2.5c0 .2.1.3.3.3v.6h-.3c-.2 0-.3 0-.4-.1-.1-.1-.2-.2-.2-.4v-.4c-.3.3-.6.6-1 .8-.5.2-1 .3-1.4.3zm.2-.6c.4 0 .7-.1 1.1-.2.3-.1.6-.3.7-.6.1-.1.1-.1.1-.2v-1.1c-.2-.1-.5-.2-.8-.2-.3-.1-.5-.1-.8-.1-.5 0-.9.1-1.3.3s-.5.5-.5.9c0 .2 0 .3.1.5s.2.3.3.4c.1.1.3.2.4.3h.7zM121.3 103c-.4 0-.8-.1-1.1-.2l-.9-.6c-.3-.2-.4-.6-.6-.9s-.2-.7-.2-1.1c0-.4.1-.8.2-1.1s.3-.7.6-.9c.2-.3.5-.5.9-.6.3-.2.7-.2 1.1-.2.4 0 .8.1 1.1.2l.9.6.6.9c.2.3.2.7.2 1.1 0 .4-.1.8-.2 1.1s-.3.7-.6.9c-.2.3-.5.5-.9.6-.3.1-.7.2-1.1.2zm-2.1-2.9c0 .3.1.6.2.9.1.3.3.5.4.7.2.2.4.4.6.5.2.1.5.2.8.2s.5-.1.8-.2c.2-.1.5-.3.7-.5s.3-.4.4-.7c.1-.3.2-.6.2-.9 0-.3-.1-.6-.2-.9-.1-.3-.3-.5-.4-.7s-.4-.4-.7-.5c-.2-.1-.5-.2-.8-.2s-.5.1-.8.2-.5.3-.6.5c-.2.2-.3.5-.4.7-.1.3-.2.6-.2.9z"/>
  </g>
  <g>
    <path fill="#f4b918" d="M89.5 16.2h16.7l-8.3 14.4H81.2z"/>
    <path fill="#f8cd29" d="M89.5 16.2L81.2 1.7h16.7l8.3 14.5z"/>
    <path class="st2" d="M89.5 45h16.7l-8.3 14.4H81.2z"/>
    <path class="st5" d="M89.5 45l-8.3-14.4h16.7l8.3 14.4zM64.6 30.6L56.2 45l-8.3-14.4 8.3-14.4z"/>
    <path fill="#e67c11" d="M72.9 16.2L64.6 1.7h16.6l8.3 14.5z"/>
    <path fill="#f3961d" d="M72.9 16.2l-8.3 14.4-8.4-14.4 8.4-14.5z"/>
    <path fill="#459687" d="M72.9 45h16.6l-8.3 14.4H64.6z"/>
    <path fill="#6fbfb4" d="M72.9 45l-8.3 14.4L56.2 45l8.4-14.4z"/>
    <path fill="#619130" d="M81.2 30.6h16.7L89.5 45H72.9z"/>
    <path class="st0" d="M81.2 30.6l-8.3-14.4h16.6l8.4 14.4z"/>
    <path fill="#bdd250" d="M81.2 30.6L72.9 45l-8.3-14.4 8.3-14.4z"/>
  </g>
</svg>
