<svg xmlns="http://www.w3.org/2000/svg" xml:space="preserve" viewBox="0 0 535.7041 100">
  <path fill="#f1f1f0" d="M133.56851 32.29659v7.28518H123.286v30.57912h-9.21081V39.58177h-10.17616v-7.28518h29.66948zm30.98126 11.0858c2.0168 2.28725 3.0257 5.42944 3.0257 9.42657V70.1609h-9.15813V53.88066c0-1.99958-.52675-3.56155-1.57921-4.68594-1.05347-1.12438-2.4554-1.68758-4.20477-1.68758-1.85675 0-3.32959.58954-4.41751 1.76659-1.08994 1.17908-1.6339 2.85654-1.6339 5.03439v15.85276h-9.15813V30.53h9.15813v15.21055c.85696-1.78483 2.13329-3.19486 3.82898-4.23213 1.69569-1.03524 3.68614-1.55185 5.97137-1.55185 3.42785 0 6.14967 1.14261 8.16747 3.42582zm37.19373 13.49662h-20.7261c.10738 2.24876.67868 3.86544 1.71393 4.84598 1.03523.98257 2.35715 1.47284 3.9637 1.47284 1.35634 0 2.48073-.33833 3.37314-1.01701.89241-.67665 1.48195-1.55185 1.76761-2.62355h9.69398c-.39403 2.10695-1.25099 3.98902-2.57088 5.65027-1.32191 1.65922-2.99936 2.96391-5.03439 3.91001-2.03503.9461-4.30304 1.41814-6.80098 1.41814-2.92847 0-5.52568-.61588-7.79268-1.84763-2.26801-1.23175-4.04372-3.00645-5.32916-5.32815-1.28442-2.32169-1.92766-5.03439-1.92766-8.14011 0-3.14219.6331-5.86502 1.90132-8.16848 1.26721-2.30144 3.04292-4.07006 5.32916-5.30181 2.28421-1.23176 4.89055-1.84763 7.81902-1.84763 2.96289 0 5.56923.60777 7.819 1.82129 2.24876 1.21352 3.98903 2.91934 5.22078 5.11543 1.23175 2.19407 1.84763 4.72038 1.84763 7.57691-.00001.74958-.08915 1.5721-.26742 2.4635zm-10.5773-8.27382c-1.08891-.98257-2.43616-1.47284-4.04269-1.47284-1.67949 0-3.07129.5004-4.17744 1.49918-1.10715 1.0008-1.73215 2.46351-1.87497 4.39218h11.67532c.03546-1.96312-.49129-3.43596-1.58022-4.41852zm63.00688-5.24914c2.10695 2.26902 3.16042 5.41931 3.16042 9.4529v17.35194h-9.10443V53.88066c0-1.8922-.50952-3.36504-1.52654-4.41851-1.01802-1.05347-2.40172-1.58021-4.15007-1.58021-1.8213 0-3.25868.5632-4.31216 1.68758-1.05347 1.12438-1.57919 2.70459-1.57919 4.73861v15.85276h-9.15814V53.88066c0-1.8922-.5004-3.36504-1.49918-4.41851-1.00079-1.05347-2.37538-1.58021-4.12373-1.58021-1.8213 0-3.26678.55307-4.3385 1.66125-1.07069 1.10615-1.60654 2.69446-1.60654 4.76495V70.1609h-9.15814V40.27666h9.15814v5.08909c.78503-1.67948 1.99045-3.00038 3.61523-3.96471 1.62376-.96231 3.52509-1.44448 5.70294-1.44448 2.28523 0 4.30202.52674 6.05241 1.57819 1.74837 1.0555 3.07027 2.56278 3.96268 4.52589 1.03525-1.85574 2.45439-3.33668 4.25746-4.44485 1.80305-1.10615 3.79352-1.65922 5.97137-1.65922 3.67704 0 6.56902 1.13248 8.67597 3.39948zm37.38112 13.52296h-20.7261c.10739 2.24876.67868 3.86544 1.71393 4.84598 1.03525.98257 2.35715 1.47284 3.96371 1.47284 1.35632 0 2.48071-.33833 3.37314-1.01701.8924-.67665 1.48193-1.55185 1.76761-2.62355h9.69397c-.39401 2.10695-1.25098 3.98902-2.57086 5.65027-1.32193 1.65922-2.99936 2.96391-5.03439 3.91001-2.03503.9461-4.30304 1.41814-6.80099 1.41814-2.92847 0-5.52567-.61588-7.79266-1.84763-2.26801-1.23175-4.04373-3.00645-5.32916-5.32815-1.28442-2.32169-1.92767-5.03439-1.92767-8.14011 0-3.14219.63312-5.86502 1.90134-8.16848 1.26721-2.30144 3.04291-4.07006 5.32916-5.30181 2.28421-1.23176 4.89053-1.84763 7.819-1.84763 2.96289 0 5.56924.60777 7.819 1.82129 2.24878 1.21352 3.98904 2.91934 5.22079 5.11543 1.23175 2.19407 1.84763 4.72038 1.84763 7.57691-.00003.74958-.08917 1.5721-.26745 2.4635zm-10.57727-8.27382c-1.08893-.98257-2.43619-1.47284-4.04272-1.47284-1.67947 0-3.07129.5004-4.17743 1.49918-1.10715 1.0008-1.73215 2.46351-1.87497 4.39218h11.67532c.03546-1.96312-.49127-3.43596-1.5802-4.41852zm54.17084-15.55698v37.11268h-4.87332V40.54408l-11.8364 29.61681h-4.33746l-11.88907-29.50943v29.50943h-4.87335V33.04821h5.83667l13.1745 31.16866 12.96078-31.16866h5.83765zm27.12494 9.47924c1.98135 1.42826 3.36505 3.3387 4.15109 5.72928v-7.4979h4.87335v29.40206h-4.87335v-7.4979c-.78604 2.3926-2.16974 4.30304-4.15109 5.7313-1.98132 1.42827-4.40027 2.14139-7.25681 2.14139-2.60635 0-4.92703-.60575-6.96204-1.8213-2.03503-1.21352-3.63348-2.95378-4.79333-5.22077-1.15982-2.267-1.74023-4.93512-1.74023-8.0064 0-3.07129.58041-5.74751 1.74023-8.03274 1.15985-2.28523 2.7583-4.03562 4.79333-5.24914 2.035-1.21352 4.35568-1.8213 6.96204-1.8213 2.85654 0 5.27548.71515 7.25681 2.14342zm-13.06714 5.06073c-1.80304 1.91043-2.70459 4.5421-2.70459 7.89903s.90155 5.98859 2.70459 7.89903c1.80206 1.91044 4.2038 2.86464 7.20316 2.86464 1.92764 0 3.64966-.4457 5.16809-1.33913 1.5174-.8914 2.70459-2.14949 3.56155-3.77427.85696-1.62478 1.28543-3.50888 1.28543-5.65027 0-2.14342-.42847-4.03359-1.28543-5.67661s-2.04416-2.90111-3.56155-3.7763c-1.51843-.87519-3.24045-1.31279-5.16809-1.31279-2.99937 0-5.4011.95623-7.20316 2.86667zm53.63501-4.01739C404.94653 45.76688 406 48.93541 406 53.07637v17.08451h-4.87332V53.50587c0-2.92744-.7496-5.1762-2.24979-6.74831-1.49918-1.57008-3.53421-2.35614-6.10507-2.35614-2.67725 0-4.81967.86507-6.42621 2.59722s-2.40982 4.25644-2.40982 7.57691v15.58534h-4.87332V40.75883h4.87332v6.96306c.7496-2.3926 2.07959-4.23213 3.99002-5.51656 1.90942-1.28646 4.11362-1.92867 6.61362-1.92867 3.42782 0 6.19421 1.09805 8.30115 3.29413zm29.96325-1.04334c1.98135 1.42826 3.36505 3.3387 4.15109 5.72928v-7.4979h4.87332v29.40206h-4.87332v-7.4979c-.78604 2.3926-2.16974 4.30304-4.15109 5.7313s-4.4003 2.14139-7.25681 2.14139c-2.60635 0-4.92703-.60575-6.96207-1.8213-2.03503-1.21352-3.63345-2.95378-4.7933-5.22077-1.15982-2.267-1.74026-4.93512-1.74026-8.0064 0-3.07129.58044-5.74751 1.74026-8.03274 1.15985-2.28523 2.75827-4.03562 4.7933-5.24914 2.03503-1.21352 4.35571-1.8213 6.96207-1.8213 2.85651 0 5.27546.71515 7.25681 2.14342zm-13.06714 5.06073c-1.80307 1.91043-2.70459 4.5421-2.70459 7.89903s.90152 5.98859 2.70459 7.89903c1.80206 1.91044 4.20377 2.86464 7.20312 2.86464 1.92767 0 3.64969-.4457 5.16812-1.33913 1.5174-.8914 2.70459-2.14949 3.56155-3.77427.85693-1.62478 1.28543-3.50888 1.28543-5.65027 0-2.14342-.4285-4.03359-1.28543-5.67661-.85696-1.64302-2.04416-2.90111-3.56155-3.7763-1.51843-.87519-3.24045-1.31279-5.16812-1.31279-2.99935 0-5.40105.95623-7.20312 2.86667zm49.16382-5.06073c1.98135 1.42826 3.36301 3.3387 4.14908 5.72928v-7.4979h4.87433v29.88423c0 2.71269-.57129 5.12353-1.7139 7.23048-1.14264 2.10493-2.74918 3.74794-4.81967 4.92702-2.07047 1.17706-4.48129 1.76659-7.23047 1.76659-3.96268 0-7.19504-.95623-9.69296-2.86464-2.5-1.91043-4.08932-4.49145-4.76697-7.73898h4.82065c.57028 1.96311 1.65009 3.50686 3.23944 4.63326 1.58829 1.12438 3.63245 1.68556 6.13242 1.68556 2.64178 0 4.82776-.84886 6.55991-2.54252 1.73215-1.69772 2.59723-4.06196 2.59723-7.09677v-7.98007c-.78607 2.3926-2.16772 4.30304-4.14908 5.7313-1.98337 1.42827-4.40231 2.14139-7.25885 2.14139-2.60532 0-4.92599-.60575-6.96103-1.8213-2.03503-1.21352-3.63345-2.95378-4.7933-5.22077-1.15982-2.267-1.74026-4.93512-1.74026-8.0064 0-3.07129.58044-5.74751 1.74026-8.03274 1.15985-2.28523 2.75827-4.03562 4.7933-5.24914 2.03503-1.21352 4.35571-1.8213 6.96103-1.8213 2.85653 0 5.27547.71515 7.25884 2.14342zm-13.06814 5.06073c-1.80307 1.91043-2.70459 4.5421-2.70459 7.89903s.90152 5.98859 2.70459 7.89903c1.80206 1.91044 4.20377 2.86464 7.20312 2.86464 1.92868 0 3.6507-.4457 5.16812-1.33913 1.5174-.8914 2.70459-2.14949 3.56155-3.77427.85696-1.62478 1.28442-3.50888 1.28442-5.65027 0-2.14342-.42746-4.03359-1.28442-5.67661-.85696-1.64302-2.04416-2.90111-3.56155-3.7763-1.51743-.87519-3.23944-1.31279-5.16812-1.31279-2.99936 0-5.40106.95623-7.20312 2.86667zm56.68808 8.91604h-23.51071c.10736 3.35694 1.06155 5.87312 2.86462 7.55057 1.80307 1.67948 4.00726 2.51821 6.61459 2.51821 2.35614 0 4.32736-.59764 5.91769-1.79496 1.58832-1.19529 2.56076-2.7917 2.91934-4.7933h5.19446c-.35858 2.03604-1.15277 3.85733-2.38452 5.46388-1.23175 1.60655-2.8302 2.85654-4.7933 3.74794-1.9631.89342-4.17743 1.33913-6.64093 1.33913-2.82007 0-5.32004-.60575-7.49588-1.8213-2.17987-1.21352-3.88367-2.95378-5.11542-5.22077-1.23175-2.267-1.84766-4.93512-1.84766-8.0064 0-3.07129.61591-5.74751 1.84766-8.03274s2.93555-4.03562 5.11542-5.24914c2.17584-1.21352 4.67581-1.8213 7.49588-1.8213 2.85654 0 5.34637.60777 7.47156 1.8213 2.12317 1.21352 3.74997 2.8383 4.87436 4.87434 1.12439 2.03402 1.68555 4.28278 1.68555 6.74629-.00001 1.03726-.07093 1.92866-.21271 2.67825zm-5.784-7.818c-.82251-1.46474-1.9469-2.55265-3.37515-3.2678-1.42828-.71312-2.98013-1.07171-4.65961-1.07171-2.67624 0-4.92703.83062-6.74631 2.49187-1.82129 1.65922-2.80383 4.09639-2.94565 7.30949h18.79639c.10739-2.17784-.24917-3.99914-1.06967-5.46185zm21.47467-6.72198c1.85571-1.12438 4.07007-1.68758 6.64093-1.68758v5.30181h-1.50122c-2.74915 0-4.99792.70704-6.74628 2.11708-1.75037 1.41004-2.62555 3.73983-2.62555 6.98737v15.47797h-4.87231V40.75883h4.87231v5.94403c.9643-2.03402 2.37433-3.61423 4.23212-4.73862z"/>
  <path fill="none" d="M66.34999 38.69304 44.15094 25.92351 21.79658 38.85576v25.23218l22.07544 12.37981 22.48426-12.90479-.00629-24.86992zM58.93818 59.9768l-14.97076 8.64342-14.9707-8.64342V42.68975l14.9707-8.64313 14.97076 8.64313V59.9768z"/>
  <linearGradient id="a" x1="1.22638" x2="21.79658" y1="56.45592" y2="56.45592" gradientTransform="matrix(1 0 0 -1 0 102)" gradientUnits="userSpaceOnUse">
    <stop offset="0" stop-color="#f7cc28"/>
    <stop offset="1" stop-color="#f3b81c"/>
  </linearGradient>
  <path fill="url(#a)" d="M21.79658 64.08794V38.85576L1.22638 26.67827V64.4099l.02545-11.84332z"/>
  <linearGradient id="b" x1="1.22638" x2="21.79662" y1="24.72843" y2="24.72843" gradientTransform="matrix(1 0 0 -1 0 102)" gradientUnits="userSpaceOnUse">
    <stop offset="0" stop-color="#f7cc28"/>
    <stop offset="1" stop-color="#f3b81c"/>
  </linearGradient>
  <path fill="url(#b)" d="m1.22638 76.31059 3.39429 1.93628-3.39429-1.95061z"/>
  <linearGradient id="c" x1="1.22638" x2="64.68462" y1="81.60173" y2="81.60173" gradientTransform="matrix(1 0 0 -1 0 102)" gradientUnits="userSpaceOnUse">
    <stop offset="0" stop-color="#bcd151"/>
    <stop offset="1" stop-color="#92c142"/>
  </linearGradient>
  <path fill="url(#c)" d="M44.15094 25.92351 23.36238 13.96532 43.72888 1.9616l-.03607-.02081L1.22638 26.67827l20.5702 12.17749z" opacity=".7"/>
  <linearGradient id="d" x1="43.73718" x2="86.60029" y1="19.85557" y2="19.85557" gradientTransform="matrix(1 0 0 -1 0 102)" gradientUnits="userSpaceOnUse">
    <stop offset="0" stop-color="#6fbfb3"/>
    <stop offset="1" stop-color="#469585"/>
  </linearGradient>
  <path fill="url(#d)" d="M66.35627 63.56298 43.87201 76.46775l-.13483 24.25813 42.86311-24.75531-20.23797 11.66521z" opacity=".7"/>
  <linearGradient id="e" x1="1.20087" x2="43.87198" y1="19.59309" y2="19.59309" gradientTransform="matrix(1 0 0 -1 0 102)" gradientUnits="userSpaceOnUse">
    <stop offset="0" stop-color="#f7cc28"/>
    <stop offset="1" stop-color="#f3b81c"/>
  </linearGradient>
  <path fill="url(#e)" d="M43.87201 76.46775 21.79658 64.08794v23.95684L4.62067 78.24687l39.11651 22.47901z"/>
  <linearGradient id="f" x1="1.20087" x2="43.87198" y1="31.64692" y2="31.64692" gradientTransform="matrix(1 0 0 -1 0 102)" gradientUnits="userSpaceOnUse">
    <stop offset="0" stop-color="#f7cc28"/>
    <stop offset="1" stop-color="#f3b81c"/>
  </linearGradient>
  <path fill="url(#f)" d="m1.20087 76.2816.02551.01466V64.4099z"/>
  <linearGradient id="g" x1="1.22638" x2="21.79658" y1="31.69432" y2="31.69432" gradientTransform="matrix(1 0 0 -1 0 102)" gradientUnits="userSpaceOnUse">
    <stop offset="0" stop-color="#f7cc28"/>
    <stop offset="1" stop-color="#f3b81c"/>
  </linearGradient>
  <path fill="url(#g)" d="M21.79658 64.08794 1.25183 52.56658 1.22638 64.4099v11.88636l3.39429 1.95061 17.17591 9.79791z"/>
  <linearGradient id="h" x1="1.20087" x2="43.87198" y1="31.69432" y2="31.69432" gradientTransform="matrix(1 0 0 -1 0 102)" gradientUnits="userSpaceOnUse">
    <stop offset="0" stop-color="#efa306"/>
    <stop offset="1" stop-color="#e98c04"/>
  </linearGradient>
  <path fill="url(#h)" d="M21.79658 64.08794 1.25183 52.56658 1.22638 64.4099v11.88636l3.39429 1.95061 17.17591 9.79791z"/>
  <linearGradient id="i" x1="23.36238" x2="86.52089" y1="94.00959" y2="94.00959" gradientTransform="matrix(1 0 0 -1 0 102)" gradientUnits="userSpaceOnUse">
    <stop offset="0" stop-color="#bcd151"/>
    <stop offset="1" stop-color="#92c142"/>
  </linearGradient>
  <path fill="url(#i)" d="m43.76416 1.94079-.03528.02081 20.94789 12.07843z" opacity=".7"/>
  <linearGradient id="j" x1="23.36238" x2="86.52089" y1="75.63121" y2="75.63121" gradientTransform="matrix(1 0 0 -1 0 102)" gradientUnits="userSpaceOnUse">
    <stop offset="0" stop-color="#bcd151"/>
    <stop offset="1" stop-color="#92c142"/>
  </linearGradient>
  <path fill="url(#j)" d="m66.34999 38.69304 20.17096-12.01477-21.83637-12.63372-20.53364 11.87896z" opacity=".7"/>
  <linearGradient id="k" x1="1.22635" x2="64.68458" y1="88.05745" y2="88.05745" gradientTransform="matrix(1 0 0 -1 0 102)" gradientUnits="userSpaceOnUse">
    <stop offset="0" stop-color="#bcd151"/>
    <stop offset="1" stop-color="#92c142"/>
  </linearGradient>
  <path fill="url(#k)" d="m44.15094 25.92351 20.53364-11.87896-.00781-.00452L43.72888 1.9616l-20.3665 12.00372z" opacity=".7"/>
  <linearGradient id="l" x1="23.36238" x2="86.52087" y1="88.05745" y2="88.05745" gradientTransform="matrix(1 0 0 -1 0 102)" gradientUnits="userSpaceOnUse">
    <stop offset="0" stop-color="#96ba41"/>
    <stop offset="1" stop-color="#8fb83f"/>
  </linearGradient>
  <path fill="url(#l)" d="m44.15094 25.92351 20.53364-11.87896-.00781-.00452L43.72888 1.9616l-20.3665 12.00372z"/>
  <linearGradient id="m" x1="66.34999" x2="86.60029" y1="50.67558" y2="50.67558" gradientTransform="matrix(1 0 0 -1 0 102)" gradientUnits="userSpaceOnUse">
    <stop offset="0" stop-color="#6fbfb3"/>
    <stop offset="1" stop-color="#469585"/>
  </linearGradient>
  <path fill="url(#m)" d="m66.35627 63.56298 20.20514-11.59674.03888 24.00433-.07934-49.2923-20.17096 12.01477z" opacity=".7"/>
  <linearGradient id="n" x1="43.73719" x2="86.60028" y1="32.19899" y2="32.19899" gradientTransform="matrix(1 0 0 -1 0 102)" gradientUnits="userSpaceOnUse">
    <stop offset="0" stop-color="#6fbfb3"/>
    <stop offset="1" stop-color="#469585"/>
  </linearGradient>
  <path fill="url(#n)" d="m66.35627 63.56298.00605 24.0728 20.23797-11.66521-.03888-24.00433z" opacity=".7"/>
  <linearGradient id="o" x1="66.35627" x2="86.60029" y1="32.19899" y2="32.19899" gradientTransform="matrix(1 0 0 -1 0 102)" gradientUnits="userSpaceOnUse">
    <stop offset="0" stop-color="#54a092"/>
    <stop offset="1" stop-color="#3e8172"/>
  </linearGradient>
  <path fill="url(#o)" d="m66.35627 63.56298.00605 24.0728 20.23797-11.66521-.03888-24.00433z"/>
  <linearGradient id="p" x1="28.99671" x2="58.93818" y1="46.34501" y2="46.34501" gradientTransform="matrix(1 0 0 -1 0 102)" gradientUnits="userSpaceOnUse">
    <stop offset="0" stop-color="#f3961e"/>
    <stop offset="1" stop-color="#e67b10"/>
  </linearGradient>
  <path fill="url(#p)" d="m43.96741 68.62022 14.97077-8.64342V42.68975L28.99671 59.9768z" opacity=".7"/>
  <linearGradient id="q" x1="28.99671" x2="58.93818" y1="54.98829" y2="54.98829" gradientTransform="matrix(1 0 0 -1 0 102)" gradientUnits="userSpaceOnUse">
    <stop offset="0" stop-color="#f3961e"/>
    <stop offset="1" stop-color="#e67b10"/>
  </linearGradient>
  <path fill="url(#q)" d="M28.99671 42.68975V59.9768l29.94147-17.28705-14.97077-8.64313z" opacity=".7"/>
  <linearGradient id="r" x1="28.99671" x2="58.93818" y1="54.98829" y2="54.98829" gradientTransform="matrix(1 0 0 -1 0 102)" gradientUnits="userSpaceOnUse">
    <stop offset="0" stop-color="#efa306"/>
    <stop offset="1" stop-color="#e98c04"/>
  </linearGradient>
  <path fill="url(#r)" d="M28.99671 42.68975V59.9768l29.94147-17.28705-14.97077-8.64313z"/>
</svg>
