<svg xmlns="http://www.w3.org/2000/svg" xml:space="preserve" viewBox="0 0 86.59711 100">
  <linearGradient id="a" x1=".61177" x2="21.22674" y1="56.13119" y2="56.13119" gradientUnits="userSpaceOnUse">
    <stop offset="0" stop-color="#f7cc28"/>
    <stop offset="1" stop-color="#f3b81c"/>
  </linearGradient>
  <path fill="url(#a)" d="M21.22674 86.88119.61177 75.12148V25.38119l20.61497 12.20398z"/>
  <linearGradient id="b" x1=".61177" x2="64.20802" y1="19.08753" y2="19.08753" gradientUnits="userSpaceOnUse">
    <stop offset="0" stop-color="#bcd151"/>
    <stop offset="1" stop-color="#92c142"/>
  </linearGradient>
  <path fill="url(#b)" d="M43.17059.58989.61177 25.38119l20.61497 12.20398 42.98128-24.86516z" opacity=".7"/>
  <linearGradient id="c" x1="43.21507" x2="86.17139" y1="75.15702" y2="75.15702" gradientUnits="userSpaceOnUse">
    <stop offset="0" stop-color="#6fbfb3"/>
    <stop offset="1" stop-color="#469585"/>
  </linearGradient>
  <path fill="url(#c)" d="m86.13242 50.72415.03897 24.05657-42.95632 24.80917.13509-24.31088z" opacity=".7"/>
  <linearGradient id="d" x1=".58624" x2="43.35016" y1="75.45786" y2="75.45786" gradientUnits="userSpaceOnUse">
    <stop offset="0" stop-color="#f7cc28"/>
    <stop offset="1" stop-color="#f3b81c"/>
  </linearGradient>
  <path fill="url(#d)" d="m.58624 75.09244 42.62883 24.49745.13509-24.31088L.6373 51.32584z"/>
  <linearGradient id="e" x1="22.79595" x2="86.09183" y1="19.006" y2="19.006" gradientUnits="userSpaceOnUse">
    <stop offset="0" stop-color="#bcd151"/>
    <stop offset="1" stop-color="#92c142"/>
  </linearGradient>
  <path fill="url(#e)" d="M22.79595 12.64061 43.24211.58989l42.84972 24.7913-20.21481 12.04092z" opacity=".7"/>
  <linearGradient id="f" x1="65.87702" x2="86.17139" y1="55.92624" y2="55.92624" gradientUnits="userSpaceOnUse">
    <stop offset="0" stop-color="#6fbfb3"/>
    <stop offset="1" stop-color="#469585"/>
  </linearGradient>
  <path fill="url(#f)" d="m86.17139 74.78072-.07956-49.39953-20.21481 12.04092.01237 49.04917z" opacity=".7"/>
  <linearGradient id="g" x1="28.44252" x2="58.44913" y1="50.08996" y2="50.08996" gradientUnits="userSpaceOnUse">
    <stop offset="0" stop-color="#f3961e"/>
    <stop offset="1" stop-color="#e67b10"/>
  </linearGradient>
  <path fill="url(#g)" d="m58.44913 58.75216-15.00337 8.6622-15.00324-8.6622V41.42752l15.00324-8.66196 15.00337 8.66196z" opacity=".7"/>
  <g opacity=".75">
    <linearGradient id="h" x1="28.44252" x2="58.44913" y1="45.75886" y2="45.75886" gradientUnits="userSpaceOnUse">
      <stop offset="0" stop-color="#f3961e"/>
      <stop offset="1" stop-color="#e67b10"/>
    </linearGradient>
    <path fill="url(#h)" d="M28.44252 58.75216V41.42752l15.00324-8.66196 15.00337 8.66196" opacity=".7"/>
  </g>
</svg>
