<svg version="1.1" id="Ebene_1" xmlns="http://www.w3.org/2000/svg" x="0" y="0" viewBox="0 0 220.07 78.974" xml:space="preserve">
  <style>
    .st1{fill:#212d46}
  </style>
  <path class="st1" d="M111.14 10.717v4.945h-6.978v20.753H97.91V15.662h-6.907v-4.945h20.136zM132.166 18.241c1.37 1.552 2.054 3.685 2.054 6.398v11.776h-6.215v-11.05c0-1.356-.357-2.416-1.072-3.18-.715-.762-1.667-1.145-2.855-1.145-1.26 0-2.259.4-2.997 1.2-.74.8-1.109 1.938-1.109 3.416v10.759h-6.215V9.518h6.215v10.323a6.69 6.69 0 0 1 2.6-2.872c1.149-.702 2.5-1.053 4.051-1.053 2.327 0 4.173.775 5.543 2.325zM157.41 27.4h-14.067c.072 1.527.46 2.624 1.163 3.29.702.667 1.599 1 2.69 1 .92 0 1.683-.23 2.288-.691a3.217 3.217 0 0 0 1.2-1.78h6.58a8.616 8.616 0 0 1-1.745 3.834c-.898 1.126-2.036 2.012-3.417 2.654-1.38.642-2.92.962-4.615.962-1.987 0-3.75-.418-5.29-1.254-1.538-.836-2.744-2.04-3.616-3.616-.872-1.575-1.309-3.416-1.309-5.524 0-2.133.43-3.98 1.291-5.544a8.836 8.836 0 0 1 3.618-3.598c1.55-.836 3.319-1.254 5.306-1.254 2.011 0 3.78.412 5.306 1.236a8.733 8.733 0 0 1 3.544 3.472c.836 1.489 1.254 3.203 1.254 5.142a8.58 8.58 0 0 1-.181 1.672zm-7.18-5.614c-.739-.667-1.653-1-2.743-1-1.14 0-2.085.34-2.835 1.017-.753.68-1.176 1.672-1.272 2.981h7.922c.025-1.332-.333-2.332-1.072-2.998zM192.992 18.223c1.43 1.54 2.144 3.678 2.144 6.416v11.776h-6.179v-11.05c0-1.283-.345-2.283-1.035-2.998-.691-.715-1.63-1.072-2.817-1.072-1.236 0-2.212.382-2.927 1.145-.715.763-1.071 1.836-1.071 3.216v10.759h-6.217v-11.05c0-1.283-.338-2.283-1.017-2.998-.68-.715-1.611-1.072-2.798-1.072-1.236 0-2.218.375-2.944 1.127-.727.75-1.091 1.829-1.091 3.234v10.759h-6.215V16.133h6.215v3.454a6.054 6.054 0 0 1 2.454-2.69c1.101-.654 2.392-.981 3.87-.981 1.551 0 2.92.357 4.109 1.071 1.185.716 2.083 1.74 2.689 3.072a8.121 8.121 0 0 1 2.889-3.017c1.223-.75 2.575-1.126 4.052-1.126 2.497 0 4.459.769 5.889 2.307zM218.36 27.4h-14.065c.073 1.527.46 2.624 1.163 3.29.703.667 1.6 1 2.69 1 .92 0 1.684-.23 2.29-.691a3.222 3.222 0 0 0 1.199-1.78h6.58a8.617 8.617 0 0 1-1.746 3.834c-.896 1.126-2.035 2.012-3.416 2.654-1.382.642-2.92.962-4.616.962-1.988 0-3.75-.418-5.288-1.254-1.54-.836-2.744-2.04-3.618-3.616-.871-1.575-1.307-3.416-1.307-5.524 0-2.133.429-3.98 1.29-5.544.86-1.562 2.065-2.762 3.616-3.598 1.55-.836 3.319-1.254 5.307-1.254 2.01 0 3.78.412 5.307 1.236a8.726 8.726 0 0 1 3.542 3.472c.836 1.489 1.254 3.203 1.254 5.142 0 .509-.06 1.067-.182 1.672zm-7.177-5.614c-.74-.667-1.654-1-2.744-1-1.14 0-2.084.34-2.835 1.017-.75.68-1.176 1.672-1.273 2.981h7.925c.023-1.332-.334-2.332-1.073-2.998z"/>
  <g opacity=".5">
    <path class="st1" d="M112.535 46.452v19.574h-2.57v-15.62l-6.242 15.62h-2.288l-6.27-15.563v15.563h-2.57V46.452h3.079l6.948 16.439 6.835-16.44h3.078zM126.84 51.451c1.046.754 1.776 1.761 2.19 3.022V50.52h2.57v15.506h-2.57v-3.954c-.414 1.262-1.144 2.27-2.19 3.022-1.044.754-2.32 1.13-3.826 1.13-1.375 0-2.6-.32-3.672-.96-1.073-.64-1.916-1.558-2.528-2.753-.612-1.196-.918-2.604-.918-4.224 0-1.618.306-3.03.918-4.236.612-1.205 1.455-2.127 2.528-2.768 1.073-.64 2.297-.96 3.672-.96 1.506 0 2.782.377 3.827 1.13zm-6.891 2.67c-.951 1.007-1.426 2.395-1.426 4.165s.475 3.16 1.426 4.166c.95 1.008 2.218 1.511 3.8 1.511 1.015 0 1.924-.235 2.725-.705a4.906 4.906 0 0 0 1.878-1.991c.45-.857.678-1.85.678-2.981 0-1.129-.227-2.127-.678-2.993-.451-.866-1.078-1.53-1.878-1.991-.8-.462-1.71-.692-2.726-.692-1.58 0-2.848.503-3.8 1.511zM148.236 52.003c1.11 1.157 1.666 2.83 1.666 5.013v9.01h-2.57V57.24c0-1.543-.395-2.73-1.186-3.558-.792-.828-1.864-1.243-3.22-1.243-1.413 0-2.542.458-3.39 1.37-.848.914-1.271 2.246-1.271 3.996v8.22h-2.57V50.518h2.57v3.672c.396-1.26 1.097-2.231 2.105-2.909 1.006-.678 2.17-1.016 3.488-1.016 1.807 0 3.267.579 4.378 1.737zM164.037 51.451c1.045.754 1.775 1.761 2.189 3.022V50.52h2.57v15.506h-2.57v-3.954c-.414 1.262-1.144 2.27-2.19 3.022-1.044.754-2.32 1.13-3.826 1.13-1.375 0-2.598-.32-3.672-.96-1.073-.64-1.915-1.558-2.527-2.753-.612-1.196-.919-2.604-.919-4.224 0-1.618.307-3.03.919-4.236.612-1.205 1.454-2.127 2.527-2.768 1.074-.64 2.297-.96 3.672-.96 1.506 0 2.782.377 3.827 1.13zm-6.891 2.67c-.952 1.007-1.426 2.395-1.426 4.165s.474 3.16 1.426 4.166c.951 1.008 2.217 1.511 3.799 1.511 1.016 0 1.924-.235 2.726-.705a4.916 4.916 0 0 0 1.878-1.991c.451-.857.677-1.85.677-2.981 0-1.129-.226-2.127-.677-2.993-.452-.866-1.078-1.53-1.878-1.991-.802-.462-1.71-.692-2.726-.692-1.582 0-2.848.503-3.8 1.511zM183.074 51.451c1.045.754 1.774 1.761 2.189 3.022V50.52h2.57v15.76c0 1.43-.301 2.703-.904 3.814a6.506 6.506 0 0 1-2.543 2.598c-1.092.622-2.362.932-3.812.932-2.09 0-3.794-.504-5.112-1.51-1.32-1.008-2.157-2.37-2.514-4.083h2.542c.301 1.035.87 1.85 1.708 2.443.838.594 1.916.89 3.235.89 1.393 0 2.546-.447 3.46-1.34.914-.896 1.37-2.143 1.37-3.743V62.07c-.415 1.262-1.144 2.27-2.189 3.022-1.045.754-2.32 1.13-3.828 1.13-1.375 0-2.598-.32-3.67-.96-1.075-.64-1.917-1.558-2.53-2.753-.611-1.196-.916-2.604-.916-4.224 0-1.618.305-3.03.917-4.236.612-1.205 1.454-2.127 2.528-2.768 1.073-.64 2.296-.96 3.671-.96 1.507 0 2.783.377 3.828 1.13zm-6.892 2.67c-.95 1.007-1.426 2.395-1.426 4.165s.475 3.16 1.426 4.166c.95 1.008 2.217 1.511 3.798 1.511 1.018 0 1.925-.235 2.726-.705a4.907 4.907 0 0 0 1.878-1.991c.452-.857.679-1.85.679-2.981 0-1.129-.227-2.127-.68-2.993-.45-.866-1.077-1.53-1.877-1.991-.8-.462-1.708-.692-2.726-.692-1.58 0-2.848.503-3.798 1.511zM206.078 58.824H193.68c.056 1.77.56 3.097 1.511 3.981.952.886 2.115 1.329 3.488 1.329 1.243 0 2.284-.315 3.121-.946.838-.631 1.352-1.474 1.539-2.529h2.74a6.5 6.5 0 0 1-1.257 2.88c-.65.849-1.491 1.508-2.528 1.978-1.035.471-2.203.707-3.5.707-1.488 0-2.808-.32-3.955-.962-1.15-.639-2.049-1.557-2.698-2.752-.65-1.196-.974-2.604-.974-4.224 0-1.618.324-3.03.974-4.236.65-1.205 1.549-2.127 2.698-2.768 1.147-.64 2.467-.96 3.954-.96 1.505 0 2.819.32 3.94.96 1.12.64 1.977 1.497 2.57 2.57.593 1.074.89 2.26.89 3.56 0 .545-.038 1.016-.114 1.412zm-3.05-4.124c-.433-.773-1.027-1.346-1.78-1.723s-1.572-.565-2.456-.565c-1.413 0-2.598.438-3.56 1.313-.96.876-1.477 2.16-1.553 3.856h9.915c.055-1.148-.132-2.11-.567-2.88zM214.354 51.156c.979-.594 2.146-.89 3.502-.89v2.795h-.79c-1.451 0-2.638.373-3.56 1.117-.923.744-1.384 1.971-1.384 3.685v8.163h-2.57V50.519h2.57v3.136c.508-1.074 1.253-1.907 2.232-2.5z"/>
  </g>
  <linearGradient id="SVGID_1_" gradientUnits="userSpaceOnUse" x1=".982" y1="44.374" x2="17.26" y2="44.374">
    <stop offset="0" stop-color="#f7cc28"/>
    <stop offset="1" stop-color="#f3b81c"/>
  </linearGradient>
  <path fill="url(#SVGID_1_)" d="M17.26 68.656.982 59.37V20.092l16.278 9.637z"/>
  <linearGradient id="SVGID_00000114768876258562386660000003194190930425165473_" gradientUnits="userSpaceOnUse" x1=".982" y1="15.123" x2="51.2" y2="15.123">
    <stop offset="0" stop-color="#bcd151"/>
    <stop offset="1" stop-color="#92c142"/>
  </linearGradient>
  <path opacity=".7" fill="url(#SVGID_00000114768876258562386660000003194190930425165473_)" d="M34.588.516.982 20.092l16.278 9.637L51.2 10.095z"/>
  <linearGradient id="SVGID_00000060718032290466746190000017733820325660736187_" gradientUnits="userSpaceOnUse" x1="34.623" y1="59.398" x2="68.543" y2="59.398">
    <stop offset="0" stop-color="#6fbfb3"/>
    <stop offset="1" stop-color="#469585"/>
  </linearGradient>
  <path opacity=".7" fill="url(#SVGID_00000060718032290466746190000017733820325660736187_)" d="m68.513 40.104.03 18.997-33.92 19.59.107-19.197z"/>
  <linearGradient id="SVGID_00000132775312301479284360000015235182156994575270_" gradientUnits="userSpaceOnUse" x1=".961" y1="59.635" x2="34.73" y2="59.635">
    <stop offset="0" stop-color="#f7cc28"/>
    <stop offset="1" stop-color="#f3b81c"/>
  </linearGradient>
  <path fill="url(#SVGID_00000132775312301479284360000015235182156994575270_)" d="m.961 59.347 33.662 19.344.107-19.197L1.002 40.58z"/>
  <linearGradient id="SVGID_00000036214143882786291590000014199687849379048356_" gradientUnits="userSpaceOnUse" x1="18.499" y1="15.058" x2="68.481" y2="15.058">
    <stop offset="0" stop-color="#bcd151"/>
    <stop offset="1" stop-color="#92c142"/>
  </linearGradient>
  <path opacity=".7" fill="url(#SVGID_00000036214143882786291590000014199687849379048356_)" d="M18.499 10.032 34.644.516l33.837 19.576-15.963 9.509z"/>
  <linearGradient id="SVGID_00000016768625330254742760000013872686448790708147_" gradientUnits="userSpaceOnUse" x1="52.518" y1="44.212" x2="68.543" y2="44.212">
    <stop offset="0" stop-color="#6fbfb3"/>
    <stop offset="1" stop-color="#469585"/>
  </linearGradient>
  <path opacity=".7" fill="url(#SVGID_00000016768625330254742760000013872686448790708147_)" d="m68.543 59.101-.062-39.009-15.963 9.509.01 38.731z"/>
  <linearGradient id="SVGID_00000040569654845966234910000013170769465601025935_" gradientUnits="userSpaceOnUse" x1="22.958" y1="39.604" x2="46.653" y2="39.604">
    <stop offset="0" stop-color="#f3961e"/>
    <stop offset="1" stop-color="#e67b10"/>
  </linearGradient>
  <path opacity=".7" fill="url(#SVGID_00000040569654845966234910000013170769465601025935_)" d="m46.653 46.444-11.848 6.84-11.847-6.84V32.763l11.847-6.84 11.848 6.84z"/>
  <g opacity=".75">
    <linearGradient id="SVGID_00000033362465362498205940000001753982236071033990_" gradientUnits="userSpaceOnUse" x1="22.958" y1="36.184" x2="46.653" y2="36.184">
      <stop offset="0" stop-color="#f3961e"/>
      <stop offset="1" stop-color="#e67b10"/>
    </linearGradient>
    <path opacity=".7" fill="url(#SVGID_00000033362465362498205940000001753982236071033990_)" d="M22.958 46.444V32.763l11.847-6.84 11.848 6.84"/>
  </g>
</svg>
